<svg width="1920" height="40" viewBox="0 0 1920 40" fill="none" xmlns="http://www.w3.org/2000/svg">
<g id="Footer">
<rect width="1920" height="40" fill="black"/>
<path id="Alogical Std." d="M16.508 19.892H19.244L17.876 16.22L16.508 19.892ZM19.628 20.9H16.124L15.32 23H14.132L17.276 14.732H18.476L21.608 23H20.432L19.628 20.9ZM22.6464 14.348H23.7384V23H22.6464V14.348ZM28.1203 23.12C26.5243 23.12 25.1923 21.956 25.1923 20.18C25.1923 18.404 26.5243 17.276 28.1203 17.276C29.7163 17.276 31.0603 18.404 31.0603 20.18C31.0603 21.956 29.7163 23.12 28.1203 23.12ZM28.1203 22.064C29.1163 22.064 29.9683 21.332 29.9683 20.18C29.9683 19.052 29.1163 18.344 28.1203 18.344C27.1003 18.344 26.2723 19.052 26.2723 20.18C26.2723 21.332 27.1003 22.064 28.1203 22.064ZM33.3536 23.804C33.6896 24.428 34.3496 24.764 34.9736 24.764C36.1856 24.764 36.9656 24.08 36.9656 22.22C36.9656 22.172 36.9536 22.136 36.9536 22.088C36.6056 22.76 35.7776 23.12 34.9856 23.12C33.4496 23.12 32.1416 21.992 32.1416 20.216C32.1416 18.44 33.4496 17.276 34.9856 17.276C35.7656 17.276 36.5696 17.636 36.9536 18.272V17.396H38.0336V22.148C38.0336 24.788 36.8336 25.796 34.9736 25.796C33.9296 25.796 32.9816 25.28 32.4416 24.284C32.5736 24.212 33.2096 23.864 33.3536 23.804ZM36.9416 20.204C36.9416 19.004 36.0776 18.344 35.0816 18.344C34.0736 18.344 33.2576 19.112 33.2576 20.204C33.2576 21.356 34.0736 22.052 35.0816 22.052C35.9936 22.052 36.9416 21.404 36.9416 20.204ZM40.9295 17.396V23H39.8495V17.396H40.9295ZM39.6335 15.332C39.6335 14.912 39.9695 14.624 40.3895 14.624C40.8095 14.624 41.1455 14.912 41.1455 15.332C41.1455 15.752 40.8095 16.04 40.3895 16.04C39.9695 16.04 39.6335 15.752 39.6335 15.332ZM42.3838 20.18C42.3838 18.404 43.7518 17.276 45.3478 17.276C46.2118 17.276 46.9798 17.6 47.5078 18.176L46.6798 18.872C46.3438 18.536 45.8638 18.344 45.3478 18.344C44.3398 18.344 43.4638 19.052 43.4638 20.18C43.4638 21.296 44.3398 22.064 45.3478 22.064C45.8638 22.064 46.3438 21.86 46.6798 21.512L47.5198 22.208C46.9918 22.784 46.2118 23.12 45.3478 23.12C43.7518 23.12 42.3838 21.956 42.3838 20.18ZM53.1958 23V22.136C52.8238 22.76 52.0078 23.12 51.2278 23.12C49.6918 23.12 48.3838 21.968 48.3838 20.192C48.3838 18.404 49.6918 17.276 51.2278 17.276C52.0078 17.276 52.8118 17.6 53.1958 18.236V17.396H54.2758V23H53.1958ZM53.1838 20.18C53.1838 18.98 52.2358 18.344 51.3238 18.344C50.3158 18.344 49.4998 19.076 49.4998 20.18C49.4998 21.284 50.3158 22.052 51.3238 22.052C52.3198 22.052 53.1838 21.368 53.1838 20.18ZM56.1034 14.348H57.1954V23H56.1034V14.348ZM61.8506 20.612H62.9666C62.9666 21.332 63.6986 22.076 64.7426 22.076C65.7986 22.076 66.3146 21.488 66.4106 20.864C66.4706 19.976 65.7506 19.556 65.0066 19.388L63.9386 19.124C62.1746 18.68 61.9226 17.684 61.9226 16.964C61.9226 15.572 63.1946 14.636 64.5986 14.636C66.0986 14.636 67.2626 15.572 67.2626 17.06H66.1466C66.1466 16.232 65.4986 15.704 64.5866 15.704C63.7706 15.704 63.0386 16.196 63.0386 16.952C63.0386 17.312 63.1706 17.852 64.2146 18.104L65.2946 18.368C66.8426 18.764 67.6826 19.628 67.5026 20.96C67.3466 22.16 66.3746 23.12 64.7426 23.12C63.0626 23.12 61.8506 21.908 61.8506 20.612ZM70.4709 17.396H71.6589V18.32H70.4709V23H69.3789V18.32H68.3709V17.396H69.3789V15.284H70.4709V17.396ZM77.2423 23V22.136C76.8703 22.76 76.0543 23.12 75.2743 23.12C73.7383 23.12 72.4423 21.968 72.4423 20.192C72.4423 18.404 73.7263 17.276 75.2623 17.276C76.0903 17.276 76.8703 17.6 77.2423 18.236V14.348H78.3343V23H77.2423ZM77.2303 20.18C77.2303 18.98 76.2823 18.344 75.3703 18.344C74.3623 18.344 73.5583 19.076 73.5583 20.18C73.5583 21.284 74.3623 22.052 75.3703 22.052C76.3663 22.052 77.2303 21.368 77.2303 20.18ZM80.066 22.376C80.066 21.944 80.426 21.62 80.846 21.62C81.278 21.62 81.638 21.944 81.638 22.376C81.638 22.808 81.278 23.12 80.846 23.12C80.426 23.12 80.066 22.808 80.066 22.376Z" fill="white"/>
<path id="CrispClip" d="M1863.07 20.984L1863.91 21.692C1863.18 22.568 1862.07 23.12 1860.78 23.12C1858.44 23.12 1856.59 21.236 1856.59 18.884C1856.59 16.544 1858.44 14.636 1860.78 14.636C1862.06 14.636 1863.15 15.176 1863.88 16.04L1863.04 16.736C1862.48 16.124 1861.69 15.716 1860.78 15.716C1859.04 15.716 1857.7 17.12 1857.7 18.884C1857.7 20.648 1859.04 22.04 1860.78 22.04C1861.7 22.04 1862.5 21.644 1863.07 20.984ZM1866.2 20.96V23H1865.1V17.396H1866.2V18.656C1866.48 17.66 1867.02 17.276 1867.76 17.276C1868.15 17.276 1868.57 17.384 1868.73 17.492L1868.56 18.512C1868.26 18.368 1867.96 18.32 1867.73 18.32C1866.65 18.32 1866.2 19.472 1866.2 20.96ZM1870.92 17.396V23H1869.84V17.396H1870.92ZM1869.62 15.332C1869.62 14.912 1869.96 14.624 1870.38 14.624C1870.8 14.624 1871.13 14.912 1871.13 15.332C1871.13 15.752 1870.8 16.04 1870.38 16.04C1869.96 16.04 1869.62 15.752 1869.62 15.332ZM1874.78 20.708L1874.02 20.528C1873 20.252 1872.42 19.748 1872.52 18.704C1872.61 17.888 1873.45 17.276 1874.46 17.276C1875.41 17.276 1876.31 17.72 1876.4 18.86H1875.36C1875.3 18.44 1874.92 18.224 1874.48 18.224C1874.06 18.224 1873.73 18.428 1873.64 18.728C1873.6 18.908 1873.6 19.052 1873.66 19.172C1873.76 19.4 1874.03 19.52 1874.32 19.604L1875.14 19.808C1876.3 20.096 1876.6 20.804 1876.6 21.44C1876.6 22.496 1875.59 23.12 1874.42 23.12C1873.42 23.12 1872.37 22.472 1872.34 21.32H1873.33C1873.37 21.56 1873.51 21.824 1873.79 21.956C1874.04 22.112 1874.33 22.172 1874.68 22.148C1875.19 22.112 1875.52 21.836 1875.53 21.416C1875.54 20.996 1875.2 20.804 1874.78 20.708ZM1879.11 17.396V18.272C1879.49 17.636 1880.27 17.276 1881.07 17.276C1882.6 17.276 1883.87 18.44 1883.87 20.216C1883.87 21.992 1882.6 23.12 1881.07 23.12C1880.27 23.12 1879.49 22.796 1879.11 22.16V25.724H1878.02V17.396H1879.11ZM1879.12 20.228C1879.12 21.428 1880.06 22.052 1880.96 22.052C1881.97 22.052 1882.77 21.344 1882.77 20.228C1882.77 19.112 1881.97 18.344 1880.96 18.344C1879.97 18.344 1879.12 19.04 1879.12 20.228ZM1891.49 20.984L1892.33 21.692C1891.59 22.568 1890.49 23.12 1889.19 23.12C1886.85 23.12 1885.01 21.236 1885.01 18.884C1885.01 16.544 1886.85 14.636 1889.19 14.636C1890.48 14.636 1891.57 15.176 1892.3 16.04L1891.46 16.736C1890.9 16.124 1890.11 15.716 1889.19 15.716C1887.45 15.716 1886.12 17.12 1886.12 18.884C1886.12 20.648 1887.45 22.04 1889.19 22.04C1890.12 22.04 1890.92 21.644 1891.49 20.984ZM1893.52 14.348H1894.61V23H1893.52V14.348ZM1897.52 17.396V23H1896.44V17.396H1897.52ZM1896.22 15.332C1896.22 14.912 1896.56 14.624 1896.98 14.624C1897.4 14.624 1897.74 14.912 1897.74 15.332C1897.74 15.752 1897.4 16.04 1896.98 16.04C1896.56 16.04 1896.22 15.752 1896.22 15.332ZM1900.44 17.396V18.272C1900.82 17.636 1901.6 17.276 1902.39 17.276C1903.93 17.276 1905.2 18.44 1905.2 20.216C1905.2 21.992 1903.93 23.12 1902.39 23.12C1901.6 23.12 1900.82 22.796 1900.44 22.16V25.724H1899.35V17.396H1900.44ZM1900.45 20.228C1900.45 21.428 1901.39 22.052 1902.29 22.052C1903.29 22.052 1904.1 21.344 1904.1 20.228C1904.1 19.112 1903.29 18.344 1902.29 18.344C1901.3 18.344 1900.45 19.04 1900.45 20.228Z" fill="white"/>
</g>
</svg>
