<svg width="1920" height="40" viewBox="0 0 1920 40" fill="none" xmlns="http://www.w3.org/2000/svg">
<g id="Headermargin">
<g id="Header">
<g clip-path="url(#clip0_70_21)">
<rect x="5" y="5" width="1910" height="30" rx="6" fill="#2A2A2A"/>
<g id="Frame 11" clip-path="url(#clip1_70_21)">
<path id="File" d="M16.3443 14.354H21.9723V15.572H17.6463V18.652H21.0763V19.87H17.6463V24H16.3443V14.354ZM24.7215 17.462V24H23.4615V17.462H24.7215ZM23.2095 15.054C23.2095 14.564 23.6015 14.228 24.0915 14.228C24.5815 14.228 24.9735 14.564 24.9735 15.054C24.9735 15.544 24.5815 15.88 24.0915 15.88C23.6015 15.88 23.2095 15.544 23.2095 15.054ZM26.8521 13.906H28.1261V24H26.8521V13.906ZM31.0964 20.22H35.1564C35.0024 19.114 34.2324 18.47 33.1684 18.47C32.0904 18.47 31.2504 19.114 31.0964 20.22ZM36.4164 20.71C36.4164 20.864 36.4164 21.06 36.4024 21.214H31.0964C31.2504 22.32 32.0904 22.992 33.2104 22.992C33.9944 22.992 34.7084 22.642 35.0864 21.984C35.4224 22.138 35.8284 22.25 36.1784 22.404C35.6184 23.566 34.4424 24.14 33.1684 24.14C31.3064 24.14 29.8224 22.782 29.8224 20.71C29.8224 18.638 31.3064 17.322 33.1684 17.322C35.0304 17.322 36.4164 18.638 36.4164 20.71Z" fill="white"/>
<path id="Edit" d="M48.6685 14.354H54.3805V15.572H49.9705V18.652H53.8205V19.87H49.9705V22.782H54.5205V24H48.6685V14.354ZM61.3208 24V22.992C60.8868 23.72 59.9348 24.14 59.0248 24.14C57.2328 24.14 55.7208 22.796 55.7208 20.724C55.7208 18.638 57.2188 17.322 59.0108 17.322C59.9768 17.322 60.8868 17.7 61.3208 18.442V13.906H62.5948V24H61.3208ZM61.3068 20.71C61.3068 19.31 60.2008 18.568 59.1368 18.568C57.9608 18.568 57.0228 19.422 57.0228 20.71C57.0228 21.998 57.9608 22.894 59.1368 22.894C60.2988 22.894 61.3068 22.096 61.3068 20.71ZM65.9871 17.462V24H64.7271V17.462H65.9871ZM64.4751 15.054C64.4751 14.564 64.8671 14.228 65.3571 14.228C65.8471 14.228 66.2391 14.564 66.2391 15.054C66.2391 15.544 65.8471 15.88 65.3571 15.88C64.8671 15.88 64.4751 15.544 64.4751 15.054ZM69.8817 17.462H71.2677V18.54H69.8817V24H68.6077V18.54H67.4317V17.462H68.6077V14.998H69.8817V17.462Z" fill="white"/>
<path id="Render" d="M87.4069 20.346L89.9829 24H88.4009L85.9089 20.388H84.6769V24H83.3609V14.354H87.0709C89.1009 14.354 89.9269 15.866 89.9269 17.378C89.9269 18.806 89.2129 20.192 87.4069 20.346ZM87.0289 15.572H84.6769V19.17H86.9729C88.1489 19.17 88.5829 18.274 88.5829 17.378C88.5829 16.496 88.1489 15.572 87.0289 15.572ZM92.3161 20.22H96.3761C96.2221 19.114 95.4521 18.47 94.3881 18.47C93.3101 18.47 92.4701 19.114 92.3161 20.22ZM97.6361 20.71C97.6361 20.864 97.6361 21.06 97.6221 21.214H92.3161C92.4701 22.32 93.3101 22.992 94.4301 22.992C95.2141 22.992 95.9281 22.642 96.3061 21.984C96.6421 22.138 97.0481 22.25 97.3981 22.404C96.8381 23.566 95.6621 24.14 94.3881 24.14C92.5261 24.14 91.0421 22.782 91.0421 20.71C91.0421 18.638 92.5261 17.322 94.3881 17.322C96.2501 17.322 97.6361 18.638 97.6361 20.71ZM100.529 20.472V24H99.2554V17.462H100.529V18.442C100.907 17.658 101.859 17.322 102.573 17.322C104.211 17.322 105.093 18.372 105.093 20.22V24H103.819V20.304C103.819 19.198 103.273 18.568 102.377 18.568C101.453 18.568 100.529 19.086 100.529 20.472ZM112.31 24V22.992C111.876 23.72 110.924 24.14 110.014 24.14C108.222 24.14 106.71 22.796 106.71 20.724C106.71 18.638 108.208 17.322 110 17.322C110.966 17.322 111.876 17.7 112.31 18.442V13.906H113.584V24H112.31ZM112.296 20.71C112.296 19.31 111.19 18.568 110.126 18.568C108.95 18.568 108.012 19.422 108.012 20.71C108.012 21.998 108.95 22.894 110.126 22.894C111.288 22.894 112.296 22.096 112.296 20.71ZM116.556 20.22H120.616C120.462 19.114 119.692 18.47 118.628 18.47C117.55 18.47 116.71 19.114 116.556 20.22ZM121.876 20.71C121.876 20.864 121.876 21.06 121.862 21.214H116.556C116.71 22.32 117.55 22.992 118.67 22.992C119.454 22.992 120.168 22.642 120.546 21.984C120.882 22.138 121.288 22.25 121.638 22.404C121.078 23.566 119.902 24.14 118.628 24.14C116.766 24.14 115.282 22.782 115.282 20.71C115.282 18.638 116.766 17.322 118.628 17.322C120.49 17.322 121.876 18.638 121.876 20.71ZM124.77 21.62V24H123.496V17.462H124.77V18.932C125.106 17.77 125.736 17.322 126.59 17.322C127.052 17.322 127.542 17.448 127.724 17.574L127.528 18.764C127.178 18.596 126.828 18.54 126.562 18.54C125.302 18.54 124.77 19.884 124.77 21.62Z" fill="white"/>
<path id="Settings" d="M138.737 21.214H140.039C140.039 22.054 140.893 22.922 142.111 22.922C143.343 22.922 143.945 22.236 144.057 21.508C144.127 20.472 143.287 19.982 142.419 19.786L141.173 19.478C139.115 18.96 138.821 17.798 138.821 16.958C138.821 15.334 140.305 14.242 141.943 14.242C143.693 14.242 145.051 15.334 145.051 17.07H143.749C143.749 16.104 142.993 15.488 141.929 15.488C140.977 15.488 140.123 16.062 140.123 16.944C140.123 17.364 140.277 17.994 141.495 18.288L142.755 18.596C144.561 19.058 145.541 20.066 145.331 21.62C145.149 23.02 144.015 24.14 142.111 24.14C140.151 24.14 138.737 22.726 138.737 21.214ZM147.938 20.22H151.998C151.844 19.114 151.074 18.47 150.01 18.47C148.932 18.47 148.092 19.114 147.938 20.22ZM153.258 20.71C153.258 20.864 153.258 21.06 153.244 21.214H147.938C148.092 22.32 148.932 22.992 150.052 22.992C150.836 22.992 151.55 22.642 151.928 21.984C152.264 22.138 152.67 22.25 153.02 22.404C152.46 23.566 151.284 24.14 150.01 24.14C148.148 24.14 146.664 22.782 146.664 20.71C146.664 18.638 148.148 17.322 150.01 17.322C151.872 17.322 153.258 18.638 153.258 20.71ZM156.641 17.462H158.027V18.54H156.641V24H155.367V18.54H154.191V17.462H155.367V14.998H156.641V17.462ZM161.235 17.462H162.621V18.54H161.235V24H159.961V18.54H158.785V17.462H159.961V14.998H161.235V17.462ZM165.325 17.462V24H164.065V17.462H165.325ZM163.813 15.054C163.813 14.564 164.205 14.228 164.695 14.228C165.185 14.228 165.577 14.564 165.577 15.054C165.577 15.544 165.185 15.88 164.695 15.88C164.205 15.88 163.813 15.544 163.813 15.054ZM168.73 20.472V24H167.456V17.462H168.73V18.442C169.108 17.658 170.06 17.322 170.774 17.322C172.412 17.322 173.294 18.372 173.294 20.22V24H172.02V20.304C172.02 19.198 171.474 18.568 170.578 18.568C169.654 18.568 168.73 19.086 168.73 20.472ZM176.324 24.938C176.716 25.666 177.486 26.058 178.214 26.058C179.628 26.058 180.538 25.26 180.538 23.09C180.538 23.034 180.524 22.992 180.524 22.936C180.118 23.72 179.152 24.14 178.228 24.14C176.436 24.14 174.91 22.824 174.91 20.752C174.91 18.68 176.436 17.322 178.228 17.322C179.138 17.322 180.076 17.742 180.524 18.484V17.462H181.784V23.006C181.784 26.086 180.384 27.262 178.214 27.262C176.996 27.262 175.89 26.66 175.26 25.498C175.414 25.414 176.156 25.008 176.324 24.938ZM180.51 20.738C180.51 19.338 179.502 18.568 178.34 18.568C177.164 18.568 176.212 19.464 176.212 20.738C176.212 22.082 177.164 22.894 178.34 22.894C179.404 22.894 180.51 22.138 180.51 20.738ZM186.283 21.326L185.387 21.116C184.197 20.794 183.525 20.206 183.637 18.988C183.749 18.036 184.729 17.322 185.905 17.322C187.011 17.322 188.061 17.84 188.173 19.17H186.955C186.885 18.68 186.437 18.428 185.933 18.428C185.443 18.428 185.051 18.666 184.953 19.016C184.897 19.226 184.897 19.394 184.967 19.534C185.093 19.8 185.401 19.94 185.737 20.038L186.703 20.276C188.047 20.612 188.397 21.438 188.397 22.18C188.397 23.412 187.221 24.14 185.863 24.14C184.687 24.14 183.469 23.384 183.427 22.04H184.589C184.631 22.32 184.799 22.628 185.121 22.782C185.415 22.964 185.751 23.034 186.157 23.006C186.759 22.964 187.137 22.642 187.151 22.152C187.165 21.662 186.773 21.438 186.283 21.326Z" fill="white"/>
<path id="Help" d="M207.851 14.354V24H206.535V19.8H201.873V24H200.571V14.354H201.873V18.61H206.535V14.354H207.851ZM210.934 20.22H214.994C214.84 19.114 214.07 18.47 213.006 18.47C211.928 18.47 211.088 19.114 210.934 20.22ZM216.254 20.71C216.254 20.864 216.254 21.06 216.24 21.214H210.934C211.088 22.32 211.928 22.992 213.048 22.992C213.832 22.992 214.546 22.642 214.924 21.984C215.26 22.138 215.666 22.25 216.016 22.404C215.456 23.566 214.28 24.14 213.006 24.14C211.144 24.14 209.66 22.782 209.66 20.71C209.66 18.638 211.144 17.322 213.006 17.322C214.868 17.322 216.254 18.638 216.254 20.71ZM217.874 13.906H219.148V24H217.874V13.906ZM222.552 17.462V18.484C223 17.742 223.91 17.322 224.834 17.322C226.626 17.322 228.11 18.68 228.11 20.752C228.11 22.824 226.626 24.14 224.834 24.14C223.91 24.14 223 23.762 222.552 23.02V27.178H221.278V17.462H222.552ZM222.566 20.766C222.566 22.166 223.658 22.894 224.708 22.894C225.884 22.894 226.822 22.068 226.822 20.766C226.822 19.464 225.884 18.568 224.708 18.568C223.56 18.568 222.566 19.38 222.566 20.766Z" fill="white"/>
</g>
<g id="Frame 13">
<rect id="Rectangle 1" x="1891" y="11.5" width="17" height="17" rx="3" fill="#5A5A5A"/>
</g>
</g>
</g>
</g>
<defs>
<clipPath id="clip0_70_21">
<rect x="5" y="5" width="1910" height="30" rx="6" fill="white"/>
</clipPath>
<clipPath id="clip1_70_21">
<rect width="234" height="14" fill="white" transform="translate(5 13)"/>
</clipPath>
</defs>
</svg>
