<svg width="1920" height="1040" viewBox="0 0 1920 1040" fill="none" xmlns="http://www.w3.org/2000/svg">
<g id="Workspace" clip-path="url(#clip0_70_32)">
<g id="Media Pool" filter="url(#filter0_d_70_32)">
<g clip-path="url(#clip1_70_32)">
<rect x="10" y="10" width="427" height="302" rx="6" fill="black"/>
<g id="Footer">
<rect width="427" height="32" transform="translate(10 10)" fill="#101010"/>
<g id="Frame 3">
<rect x="16" y="16" width="63" height="20" rx="3" fill="#191919"/>
<path id="Picker" d="M25.67 27.17L28.1 22.11H28.95L29.79 29H28.87L28.24 23.82L26.09 28.24H25.27L23.1 23.82L22.47 29H21.55L22.39 22.11H23.24L25.67 27.17ZM31.6373 26.3H34.5373C34.4273 25.51 33.8773 25.05 33.1173 25.05C32.3473 25.05 31.7473 25.51 31.6373 26.3ZM35.4373 26.65C35.4373 26.76 35.4373 26.9 35.4273 27.01H31.6373C31.7473 27.8 32.3473 28.28 33.1473 28.28C33.7073 28.28 34.2173 28.03 34.4873 27.56C34.7273 27.67 35.0173 27.75 35.2673 27.86C34.8673 28.69 34.0273 29.1 33.1173 29.1C31.7873 29.1 30.7273 28.13 30.7273 26.65C30.7273 25.17 31.7873 24.23 33.1173 24.23C34.4473 24.23 35.4373 25.17 35.4373 26.65ZM40.284 29V28.28C39.974 28.8 39.294 29.1 38.644 29.1C37.364 29.1 36.284 28.14 36.284 26.66C36.284 25.17 37.354 24.23 38.634 24.23C39.324 24.23 39.974 24.5 40.284 25.03V21.79H41.194V29H40.284ZM40.274 26.65C40.274 25.65 39.484 25.12 38.724 25.12C37.884 25.12 37.214 25.73 37.214 26.65C37.214 27.57 37.884 28.21 38.724 28.21C39.554 28.21 40.274 27.64 40.274 26.65ZM43.617 24.33V29H42.717V24.33H43.617ZM42.537 22.61C42.537 22.26 42.817 22.02 43.167 22.02C43.517 22.02 43.797 22.26 43.797 22.61C43.797 22.96 43.517 23.2 43.167 23.2C42.817 23.2 42.537 22.96 42.537 22.61ZM48.8389 29V28.28C48.5289 28.8 47.8489 29.1 47.1989 29.1C45.9189 29.1 44.8289 28.14 44.8289 26.66C44.8289 25.17 45.9189 24.23 47.1989 24.23C47.8489 24.23 48.5189 24.5 48.8389 25.03V24.33H49.7389V29H48.8389ZM48.8289 26.65C48.8289 25.65 48.0389 25.12 47.2789 25.12C46.4389 25.12 45.7589 25.73 45.7589 26.65C45.7589 27.57 46.4389 28.21 47.2789 28.21C48.1089 28.21 48.8289 27.64 48.8289 26.65ZM54.0396 22.11H56.7896C58.2496 22.11 58.8396 23.19 58.8396 24.27C58.8396 25.35 58.2496 26.42 56.7896 26.42H54.9796V29H54.0396V22.11ZM56.7796 22.98H54.9796V25.55H56.7296C57.5696 25.55 57.9096 24.91 57.9096 24.27C57.9096 23.64 57.5796 22.98 56.7796 22.98ZM61.8783 29.1C60.5483 29.1 59.4383 28.13 59.4383 26.65C59.4383 25.17 60.5483 24.23 61.8783 24.23C63.2083 24.23 64.3283 25.17 64.3283 26.65C64.3283 28.13 63.2083 29.1 61.8783 29.1ZM61.8783 28.22C62.7083 28.22 63.4183 27.61 63.4183 26.65C63.4183 25.71 62.7083 25.12 61.8783 25.12C61.0283 25.12 60.3383 25.71 60.3383 26.65C60.3383 27.61 61.0283 28.22 61.8783 28.22ZM67.6693 29.1C66.3393 29.1 65.2293 28.13 65.2293 26.65C65.2293 25.17 66.3393 24.23 67.6693 24.23C68.9993 24.23 70.1193 25.17 70.1193 26.65C70.1193 28.13 68.9993 29.1 67.6693 29.1ZM67.6693 28.22C68.4993 28.22 69.2093 27.61 69.2093 26.65C69.2093 25.71 68.4993 25.12 67.6693 25.12C66.8193 25.12 66.1293 25.71 66.1293 26.65C66.1293 27.61 66.8193 28.22 67.6693 28.22ZM71.3303 21.79H72.2403V29H71.3303V21.79Z" fill="#626262"/>
</g>
<path id="Media Pool_2" d="M373.903 26.804L376.819 20.732H377.839L378.847 29H377.743L376.987 22.784L374.407 28.088H373.423L370.819 22.784L370.063 29H368.959L369.967 20.732H370.987L373.903 26.804ZM381.064 25.76H384.544C384.412 24.812 383.752 24.26 382.84 24.26C381.916 24.26 381.196 24.812 381.064 25.76ZM385.624 26.18C385.624 26.312 385.624 26.48 385.612 26.612H381.064C381.196 27.56 381.916 28.136 382.876 28.136C383.548 28.136 384.16 27.836 384.484 27.272C384.772 27.404 385.12 27.5 385.42 27.632C384.94 28.628 383.932 29.12 382.84 29.12C381.244 29.12 379.972 27.956 379.972 26.18C379.972 24.404 381.244 23.276 382.84 23.276C384.436 23.276 385.624 24.404 385.624 26.18ZM391.44 29V28.136C391.068 28.76 390.252 29.12 389.472 29.12C387.936 29.12 386.64 27.968 386.64 26.192C386.64 24.404 387.924 23.276 389.46 23.276C390.288 23.276 391.068 23.6 391.44 24.236V20.348H392.532V29H391.44ZM391.428 26.18C391.428 24.98 390.48 24.344 389.568 24.344C388.56 24.344 387.756 25.076 387.756 26.18C387.756 27.284 388.56 28.052 389.568 28.052C390.564 28.052 391.428 27.368 391.428 26.18ZM395.439 23.396V29H394.359V23.396H395.439ZM394.143 21.332C394.143 20.912 394.479 20.624 394.899 20.624C395.319 20.624 395.655 20.912 395.655 21.332C395.655 21.752 395.319 22.04 394.899 22.04C394.479 22.04 394.143 21.752 394.143 21.332ZM401.706 29V28.136C401.334 28.76 400.518 29.12 399.738 29.12C398.202 29.12 396.894 27.968 396.894 26.192C396.894 24.404 398.202 23.276 399.738 23.276C400.518 23.276 401.322 23.6 401.706 24.236V23.396H402.786V29H401.706ZM401.694 26.18C401.694 24.98 400.746 24.344 399.834 24.344C398.826 24.344 398.01 25.076 398.01 26.18C398.01 27.284 398.826 28.052 399.834 28.052C400.83 28.052 401.694 27.368 401.694 26.18ZM407.946 20.732H411.246C412.998 20.732 413.706 22.028 413.706 23.324C413.706 24.62 412.998 25.904 411.246 25.904H409.074V29H407.946V20.732ZM411.234 21.776H409.074V24.86H411.174C412.182 24.86 412.59 24.092 412.59 23.324C412.59 22.568 412.194 21.776 411.234 21.776ZM417.353 29.12C415.757 29.12 414.425 27.956 414.425 26.18C414.425 24.404 415.757 23.276 417.353 23.276C418.949 23.276 420.293 24.404 420.293 26.18C420.293 27.956 418.949 29.12 417.353 29.12ZM417.353 28.064C418.349 28.064 419.201 27.332 419.201 26.18C419.201 25.052 418.349 24.344 417.353 24.344C416.333 24.344 415.505 25.052 415.505 26.18C415.505 27.332 416.333 28.064 417.353 28.064ZM424.302 29.12C422.706 29.12 421.374 27.956 421.374 26.18C421.374 24.404 422.706 23.276 424.302 23.276C425.898 23.276 427.242 24.404 427.242 26.18C427.242 27.956 425.898 29.12 424.302 29.12ZM424.302 28.064C425.298 28.064 426.15 27.332 426.15 26.18C426.15 25.052 425.298 24.344 424.302 24.344C423.282 24.344 422.454 25.052 422.454 26.18C422.454 27.332 423.282 28.064 424.302 28.064ZM428.695 20.348H429.787V29H428.695V20.348Z" fill="white"/>
</g>
<g id="Workspace_2">
<g id="Frame 4">
<rect x="20" y="52" width="92" height="66" rx="6" fill="#141414"/>
</g>
<g id="Frame 10">
<rect x="122" y="52" width="92" height="66" rx="6" fill="#141414"/>
</g>
<g id="Frame 5">
<rect x="224" y="52" width="92" height="66" rx="6" fill="#141414"/>
</g>
<g id="Frame 6">
<rect x="326" y="52" width="92" height="66" rx="6" fill="#141414"/>
</g>
<g id="Frame 7">
<rect x="20" y="128" width="92" height="66" rx="6" fill="#141414"/>
</g>
<g id="Frame 8">
<rect x="122" y="128" width="92" height="66" rx="6" fill="#141414"/>
</g>
<g id="Frame 9">
<rect x="224" y="128" width="92" height="66" rx="6" fill="#141414"/>
</g>
</g>
</g>
</g>
<g id="Preview" filter="url(#filter1_d_70_32)">
<g clip-path="url(#clip2_70_32)">
<rect x="437" y="10" width="452" height="302" rx="6" fill="black"/>
<g id="Footer_2">
<rect width="452" height="32" transform="translate(437 10)" fill="#101010"/>
<g id="Frame 3_2">
<rect x="443" y="16" width="47" height="20" rx="3" fill="#191919"/>
<path id="Picker_2" d="M448.94 22.11H451.69C453.15 22.11 453.74 23.19 453.74 24.27C453.74 25.35 453.15 26.42 451.69 26.42H449.88V29H448.94V22.11ZM451.68 22.98H449.88V25.55H451.63C452.47 25.55 452.81 24.91 452.81 24.27C452.81 23.64 452.48 22.98 451.68 22.98ZM455.676 27.3V29H454.766V24.33H455.676V25.38C455.916 24.55 456.366 24.23 456.976 24.23C457.306 24.23 457.656 24.32 457.786 24.41L457.646 25.26C457.396 25.14 457.146 25.1 456.956 25.1C456.056 25.1 455.676 26.06 455.676 27.3ZM459.194 26.3H462.094C461.984 25.51 461.434 25.05 460.674 25.05C459.904 25.05 459.304 25.51 459.194 26.3ZM462.994 26.65C462.994 26.76 462.994 26.9 462.984 27.01H459.194C459.304 27.8 459.904 28.28 460.704 28.28C461.264 28.28 461.774 28.03 462.044 27.56C462.284 27.67 462.574 27.75 462.824 27.86C462.424 28.69 461.584 29.1 460.674 29.1C459.344 29.1 458.284 28.13 458.284 26.65C458.284 25.17 459.344 24.23 460.674 24.23C462.004 24.23 462.994 25.17 462.994 26.65ZM463.473 24.33H464.433L465.853 27.84L467.263 24.33H468.233L466.283 29H466.293H465.413L463.473 24.33ZM470.06 24.33V29H469.16V24.33H470.06ZM468.98 22.61C468.98 22.26 469.26 22.02 469.61 22.02C469.96 22.02 470.24 22.26 470.24 22.61C470.24 22.96 469.96 23.2 469.61 23.2C469.26 23.2 468.98 22.96 468.98 22.61ZM472.182 26.3H475.082C474.972 25.51 474.422 25.05 473.662 25.05C472.892 25.05 472.292 25.51 472.182 26.3ZM475.982 26.65C475.982 26.76 475.982 26.9 475.972 27.01H472.182C472.292 27.8 472.892 28.28 473.692 28.28C474.252 28.28 474.762 28.03 475.032 27.56C475.272 27.67 475.562 27.75 475.812 27.86C475.412 28.69 474.572 29.1 473.662 29.1C472.332 29.1 471.272 28.13 471.272 26.65C471.272 25.17 472.332 24.23 473.662 24.23C474.992 24.23 475.982 25.17 475.982 26.65ZM482.271 29H481.521L480.251 25.57L479.021 29H478.281L476.501 24.33H477.471L478.641 27.6L479.811 24.33H480.691L481.861 27.6L483.031 24.33H484.001L482.271 29Z" fill="#626262"/>
</g>
<path id="Preview_2" d="M840.401 20.732H843.701C845.453 20.732 846.161 22.028 846.161 23.324C846.161 24.62 845.453 25.904 843.701 25.904H841.529V29H840.401V20.732ZM843.689 21.776H841.529V24.86H843.629C844.637 24.86 845.045 24.092 845.045 23.324C845.045 22.568 844.649 21.776 843.689 21.776ZM848.484 26.96V29H847.392V23.396H848.484V24.656C848.772 23.66 849.312 23.276 850.044 23.276C850.44 23.276 850.86 23.384 851.016 23.492L850.848 24.512C850.548 24.368 850.248 24.32 850.02 24.32C848.94 24.32 848.484 25.472 848.484 26.96ZM852.706 25.76H856.186C856.054 24.812 855.394 24.26 854.482 24.26C853.558 24.26 852.838 24.812 852.706 25.76ZM857.266 26.18C857.266 26.312 857.266 26.48 857.254 26.612H852.706C852.838 27.56 853.558 28.136 854.518 28.136C855.19 28.136 855.802 27.836 856.126 27.272C856.414 27.404 856.762 27.5 857.062 27.632C856.582 28.628 855.574 29.12 854.482 29.12C852.886 29.12 851.614 27.956 851.614 26.18C851.614 24.404 852.886 23.276 854.482 23.276C856.078 23.276 857.266 24.404 857.266 26.18ZM857.841 23.396H858.993L860.697 27.608L862.389 23.396H863.553L861.213 29H861.225H860.169L857.841 23.396ZM865.746 23.396V29H864.666V23.396H865.746ZM864.45 21.332C864.45 20.912 864.786 20.624 865.206 20.624C865.626 20.624 865.962 20.912 865.962 21.332C865.962 21.752 865.626 22.04 865.206 22.04C864.786 22.04 864.45 21.752 864.45 21.332ZM868.292 25.76H871.772C871.64 24.812 870.98 24.26 870.068 24.26C869.144 24.26 868.424 24.812 868.292 25.76ZM872.852 26.18C872.852 26.312 872.852 26.48 872.84 26.612H868.292C868.424 27.56 869.144 28.136 870.104 28.136C870.776 28.136 871.388 27.836 871.712 27.272C872 27.404 872.348 27.5 872.648 27.632C872.168 28.628 871.16 29.12 870.068 29.12C868.472 29.12 867.2 27.956 867.2 26.18C867.2 24.404 868.472 23.276 870.068 23.276C871.664 23.276 872.852 24.404 872.852 26.18ZM880.398 29H879.498L877.974 24.884L876.498 29H875.61L873.474 23.396H874.638L876.042 27.32L877.446 23.396H878.502L879.906 27.32L881.31 23.396H882.474L880.398 29Z" fill="white"/>
</g>
<g id="Workspace_3">
<g id="Frame 4_2">
<rect x="457" y="52" width="412" height="250" rx="6" fill="#141414"/>
</g>
</g>
</g>
</g>
<g id="Bar" filter="url(#filter2_d_70_32)">
<g clip-path="url(#clip3_70_32)">
<rect x="10" y="312" width="1346" height="249" rx="6" fill="black"/>
<g id="Footer_3">
<rect width="1346" height="32" transform="translate(10 312)" fill="#101010"/>
<g id="Frame 3_3">
<rect x="16" y="318" width="27" height="20" rx="3" fill="#191919"/>
<path id="Picker_3" d="M26.41 325.89C26.41 326.47 26.19 327.09 25.54 327.33C26.31 327.49 26.78 328.33 26.78 329.01C26.78 330.08 26.04 331 24.76 331H21.94V324.11H24.54C25.7 324.11 26.41 324.8 26.41 325.89ZM22.88 326.97H24.54C25.15 326.97 25.46 326.48 25.46 325.92C25.46 325.32 25.07 324.97 24.44 324.97H22.88V326.97ZM24.69 327.79H22.88V330.13H24.72C25.4 330.13 25.82 329.59 25.82 329C25.82 328.44 25.38 327.79 24.69 327.79ZM31.7393 331V330.28C31.4293 330.8 30.7493 331.1 30.0993 331.1C28.8193 331.1 27.7293 330.14 27.7293 328.66C27.7293 327.17 28.8193 326.23 30.0993 326.23C30.7493 326.23 31.4193 326.5 31.7393 327.03V326.33H32.6393V331H31.7393ZM31.7293 328.65C31.7293 327.65 30.9393 327.12 30.1793 327.12C29.3393 327.12 28.6593 327.73 28.6593 328.65C28.6593 329.57 29.3393 330.21 30.1793 330.21C31.0093 330.21 31.7293 329.64 31.7293 328.65ZM35.0723 329.3V331H34.1623V326.33H35.0723V327.38C35.3123 326.55 35.7623 326.23 36.3723 326.23C36.7023 326.23 37.0523 326.32 37.1823 326.41L37.0423 327.26C36.7923 327.14 36.5423 327.1 36.3523 327.1C35.4523 327.1 35.0723 328.06 35.0723 329.3Z" fill="#626262"/>
</g>
<path id="Bar_2" d="M1336.68 324.868C1336.68 325.564 1336.42 326.308 1335.64 326.596C1336.56 326.788 1337.13 327.796 1337.13 328.612C1337.13 329.896 1336.24 331 1334.7 331H1331.32V322.732H1334.44C1335.83 322.732 1336.68 323.56 1336.68 324.868ZM1332.45 326.164H1334.44C1335.17 326.164 1335.54 325.576 1335.54 324.904C1335.54 324.184 1335.08 323.764 1334.32 323.764H1332.45V326.164ZM1334.62 327.148H1332.45V329.956H1334.66C1335.47 329.956 1335.98 329.308 1335.98 328.6C1335.98 327.928 1335.45 327.148 1334.62 327.148ZM1343.08 331V330.136C1342.71 330.76 1341.89 331.12 1341.11 331.12C1339.57 331.12 1338.27 329.968 1338.27 328.192C1338.27 326.404 1339.57 325.276 1341.11 325.276C1341.89 325.276 1342.69 325.6 1343.08 326.236V325.396H1344.16V331H1343.08ZM1343.07 328.18C1343.07 326.98 1342.12 326.344 1341.21 326.344C1340.2 326.344 1339.38 327.076 1339.38 328.18C1339.38 329.284 1340.2 330.052 1341.21 330.052C1342.2 330.052 1343.07 329.368 1343.07 328.18ZM1347.08 328.96V331H1345.99V325.396H1347.08V326.656C1347.37 325.66 1347.91 325.276 1348.64 325.276C1349.03 325.276 1349.45 325.384 1349.61 325.492L1349.44 326.512C1349.14 326.368 1348.84 326.32 1348.61 326.32C1347.53 326.32 1347.08 327.472 1347.08 328.96Z" fill="white"/>
</g>
<g id="Workspace_4">
<g id="Track">
<g clip-path="url(#clip4_70_32)">
<rect x="20" y="367.5" width="1326" height="50" rx="7" fill="#191919" fill-opacity="0.71"/>
<g id="Trackheader">
<rect width="130" height="50" transform="translate(20 367.5)" fill="#191919"/>
<g id="Volume x">
<path id="Icon" d="M67.4165 390.75L63.9165 394.25M63.9165 390.75L67.4165 394.25M60.4165 388.417L57.4998 390.75H55.1665V394.25H57.4998L60.4165 396.583V388.417Z" stroke="#454545" stroke-linecap="round" stroke-linejoin="round"/>
</g>
<g id="Eye off" clip-path="url(#clip5_70_32)">
<path id="Icon_2" d="M88.4652 395.965C87.468 396.725 86.2538 397.146 85.0002 397.167C80.9168 397.167 78.5835 392.5 78.5835 392.5C79.3091 391.148 80.3155 389.966 81.5352 389.035M83.7752 387.973C84.1767 387.879 84.5878 387.832 85.0002 387.833C89.0835 387.833 91.4168 392.5 91.4168 392.5C91.0627 393.162 90.6404 393.786 90.1568 394.361M86.2368 393.737C86.0766 393.909 85.8834 394.047 85.6688 394.142C85.4541 394.238 85.2224 394.289 84.9874 394.293C84.7524 394.298 84.519 394.254 84.3011 394.166C84.0832 394.078 83.8853 393.947 83.7191 393.781C83.5529 393.615 83.4219 393.417 83.3339 393.199C83.2459 392.981 83.2026 392.748 83.2068 392.513C83.2109 392.278 83.2624 392.046 83.358 391.831C83.4537 391.617 83.5916 391.424 83.7635 391.263M78.5835 386.083L91.4168 398.917" stroke="#454545" stroke-linecap="round" stroke-linejoin="round"/>
</g>
<g id="settings">
<path id="icon" d="M107.396 398.333L107.163 396.467C107.036 396.418 106.917 396.36 106.805 396.292C106.694 396.224 106.584 396.151 106.477 396.073L104.742 396.802L103.138 394.031L104.64 392.894C104.63 392.826 104.625 392.76 104.625 392.697V392.303C104.625 392.24 104.63 392.174 104.64 392.106L103.138 390.969L104.742 388.198L106.477 388.927C106.584 388.849 106.696 388.776 106.813 388.708C106.929 388.64 107.046 388.582 107.163 388.533L107.396 386.667H110.604L110.838 388.533C110.964 388.582 111.083 388.64 111.195 388.708C111.307 388.776 111.416 388.849 111.523 388.927L113.259 388.198L114.863 390.969L113.361 392.106C113.37 392.174 113.375 392.24 113.375 392.303V392.697C113.375 392.76 113.365 392.826 113.346 392.894L114.848 394.031L113.244 396.802L111.523 396.073C111.416 396.151 111.304 396.224 111.188 396.292C111.071 396.36 110.954 396.418 110.838 396.467L110.604 398.333H107.396ZM109.029 394.542C109.593 394.542 110.075 394.342 110.473 393.944C110.872 393.545 111.071 393.064 111.071 392.5C111.071 391.936 110.872 391.455 110.473 391.056C110.075 390.658 109.593 390.458 109.029 390.458C108.456 390.458 107.972 390.658 107.578 391.056C107.185 391.455 106.988 391.936 106.988 392.5C106.988 393.064 107.185 393.545 107.578 393.944C107.972 394.342 108.456 394.542 109.029 394.542Z" fill="#454545"/>
</g>
</g>
</g>
</g>
<g id="Track_2">
<g clip-path="url(#clip6_70_32)">
<rect x="20" y="427.5" width="1326" height="50" rx="7" fill="#191919" fill-opacity="0.71"/>
<g id="Trackheader_2">
<rect width="130" height="50" transform="translate(20 427.5)" fill="#191919"/>
<g id="Volume x_2">
<path id="Icon_3" d="M67.4165 450.75L63.9165 454.25M63.9165 450.75L67.4165 454.25M60.4165 448.417L57.4998 450.75H55.1665V454.25H57.4998L60.4165 456.583V448.417Z" stroke="#454545" stroke-linecap="round" stroke-linejoin="round"/>
</g>
<g id="Eye off_2" clip-path="url(#clip7_70_32)">
<path id="Icon_4" d="M88.4652 455.965C87.468 456.725 86.2538 457.146 85.0002 457.167C80.9168 457.167 78.5835 452.5 78.5835 452.5C79.3091 451.148 80.3155 449.966 81.5352 449.035M83.7752 447.973C84.1767 447.879 84.5878 447.832 85.0002 447.833C89.0835 447.833 91.4168 452.5 91.4168 452.5C91.0627 453.162 90.6404 453.786 90.1568 454.361M86.2368 453.737C86.0766 453.909 85.8834 454.047 85.6688 454.142C85.4541 454.238 85.2224 454.289 84.9874 454.293C84.7524 454.298 84.519 454.254 84.3011 454.166C84.0832 454.078 83.8853 453.947 83.7191 453.781C83.5529 453.615 83.4219 453.417 83.3339 453.199C83.2459 452.981 83.2026 452.748 83.2068 452.513C83.2109 452.278 83.2624 452.046 83.358 451.831C83.4537 451.617 83.5916 451.424 83.7635 451.263M78.5835 446.083L91.4168 458.917" stroke="#454545" stroke-linecap="round" stroke-linejoin="round"/>
</g>
<g id="settings_2">
<path id="icon_2" d="M107.396 458.333L107.163 456.467C107.036 456.418 106.917 456.36 106.805 456.292C106.694 456.224 106.584 456.151 106.477 456.073L104.742 456.802L103.138 454.031L104.64 452.894C104.63 452.826 104.625 452.76 104.625 452.697V452.303C104.625 452.24 104.63 452.174 104.64 452.106L103.138 450.969L104.742 448.198L106.477 448.927C106.584 448.849 106.696 448.776 106.813 448.708C106.929 448.64 107.046 448.582 107.163 448.533L107.396 446.667H110.604L110.838 448.533C110.964 448.582 111.083 448.64 111.195 448.708C111.307 448.776 111.416 448.849 111.523 448.927L113.259 448.198L114.863 450.969L113.361 452.106C113.37 452.174 113.375 452.24 113.375 452.303V452.697C113.375 452.76 113.365 452.826 113.346 452.894L114.848 454.031L113.244 456.802L111.523 456.073C111.416 456.151 111.304 456.224 111.188 456.292C111.071 456.36 110.954 456.418 110.838 456.467L110.604 458.333H107.396ZM109.029 454.542C109.593 454.542 110.075 454.342 110.473 453.944C110.872 453.545 111.071 453.064 111.071 452.5C111.071 451.936 110.872 451.455 110.473 451.056C110.075 450.658 109.593 450.458 109.029 450.458C108.456 450.458 107.972 450.658 107.578 451.056C107.185 451.455 106.988 451.936 106.988 452.5C106.988 453.064 107.185 453.545 107.578 453.944C107.972 454.342 108.456 454.542 109.029 454.542Z" fill="#454545"/>
</g>
</g>
</g>
</g>
<g id="Track_3">
<g clip-path="url(#clip8_70_32)">
<rect x="20" y="487.5" width="1326" height="50" rx="7" fill="#191919" fill-opacity="0.71"/>
<g id="Trackheader_3">
<rect width="130" height="50" transform="translate(20 487.5)" fill="#191919"/>
<g id="Volume x_3">
<path id="Icon_5" d="M67.4165 510.75L63.9165 514.25M63.9165 510.75L67.4165 514.25M60.4165 508.417L57.4998 510.75H55.1665V514.25H57.4998L60.4165 516.583V508.417Z" stroke="#454545" stroke-linecap="round" stroke-linejoin="round"/>
</g>
<g id="Eye off_3" clip-path="url(#clip9_70_32)">
<path id="Icon_6" d="M88.4652 515.965C87.468 516.725 86.2538 517.146 85.0002 517.167C80.9168 517.167 78.5835 512.5 78.5835 512.5C79.3091 511.148 80.3155 509.966 81.5352 509.035M83.7752 507.973C84.1767 507.879 84.5878 507.832 85.0002 507.833C89.0835 507.833 91.4168 512.5 91.4168 512.5C91.0627 513.162 90.6404 513.786 90.1568 514.361M86.2368 513.737C86.0766 513.909 85.8834 514.047 85.6688 514.142C85.4541 514.238 85.2224 514.289 84.9874 514.293C84.7524 514.298 84.519 514.254 84.3011 514.166C84.0832 514.078 83.8853 513.947 83.7191 513.781C83.5529 513.615 83.4219 513.417 83.3339 513.199C83.2459 512.981 83.2026 512.748 83.2068 512.513C83.2109 512.278 83.2624 512.046 83.358 511.831C83.4537 511.617 83.5916 511.424 83.7635 511.263M78.5835 506.083L91.4168 518.917" stroke="#454545" stroke-linecap="round" stroke-linejoin="round"/>
</g>
<g id="settings_3">
<path id="icon_3" d="M107.396 518.333L107.163 516.467C107.036 516.418 106.917 516.36 106.805 516.292C106.694 516.224 106.584 516.151 106.477 516.073L104.742 516.802L103.138 514.031L104.64 512.894C104.63 512.826 104.625 512.76 104.625 512.697V512.303C104.625 512.24 104.63 512.174 104.64 512.106L103.138 510.969L104.742 508.198L106.477 508.927C106.584 508.849 106.696 508.776 106.813 508.708C106.929 508.64 107.046 508.582 107.163 508.533L107.396 506.667H110.604L110.838 508.533C110.964 508.582 111.083 508.64 111.195 508.708C111.307 508.776 111.416 508.849 111.523 508.927L113.259 508.198L114.863 510.969L113.361 512.106C113.37 512.174 113.375 512.24 113.375 512.303V512.697C113.375 512.76 113.365 512.826 113.346 512.894L114.848 514.031L113.244 516.802L111.523 516.073C111.416 516.151 111.304 516.224 111.188 516.292C111.071 516.36 110.954 516.418 110.838 516.467L110.604 518.333H107.396ZM109.029 514.542C109.593 514.542 110.075 514.342 110.473 513.944C110.872 513.545 111.071 513.064 111.071 512.5C111.071 511.936 110.872 511.455 110.473 511.056C110.075 510.658 109.593 510.458 109.029 510.458C108.456 510.458 107.972 510.658 107.578 511.056C107.185 511.455 106.988 511.936 106.988 512.5C106.988 513.064 107.185 513.545 107.578 513.944C107.972 514.342 108.456 514.542 109.029 514.542Z" fill="#454545"/>
</g>
</g>
</g>
</g>
</g>
</g>
</g>
</g>
<defs>
<filter id="filter0_d_70_32" x="-63.9" y="-57.9" width="574.8" height="449.8" filterUnits="userSpaceOnUse" color-interpolation-filters="sRGB">
<feFlood flood-opacity="0" result="BackgroundImageFix"/>
<feColorMatrix in="SourceAlpha" type="matrix" values="0 0 0 0 0 0 0 0 0 0 0 0 0 0 0 0 0 0 127 0" result="hardAlpha"/>
<feOffset dy="6"/>
<feGaussianBlur stdDeviation="36.95"/>
<feComposite in2="hardAlpha" operator="out"/>
<feColorMatrix type="matrix" values="0 0 0 0 0 0 0 0 0 0 0 0 0 0 0 0 0 0 0.25 0"/>
<feBlend mode="normal" in2="BackgroundImageFix" result="effect1_dropShadow_70_32"/>
<feBlend mode="normal" in="SourceGraphic" in2="effect1_dropShadow_70_32" result="shape"/>
</filter>
<filter id="filter1_d_70_32" x="363.1" y="-57.9" width="599.8" height="449.8" filterUnits="userSpaceOnUse" color-interpolation-filters="sRGB">
<feFlood flood-opacity="0" result="BackgroundImageFix"/>
<feColorMatrix in="SourceAlpha" type="matrix" values="0 0 0 0 0 0 0 0 0 0 0 0 0 0 0 0 0 0 127 0" result="hardAlpha"/>
<feOffset dy="6"/>
<feGaussianBlur stdDeviation="36.95"/>
<feComposite in2="hardAlpha" operator="out"/>
<feColorMatrix type="matrix" values="0 0 0 0 0 0 0 0 0 0 0 0 0 0 0 0 0 0 0.25 0"/>
<feBlend mode="normal" in2="BackgroundImageFix" result="effect1_dropShadow_70_32"/>
<feBlend mode="normal" in="SourceGraphic" in2="effect1_dropShadow_70_32" result="shape"/>
</filter>
<filter id="filter2_d_70_32" x="-63.9" y="244.1" width="1493.8" height="396.8" filterUnits="userSpaceOnUse" color-interpolation-filters="sRGB">
<feFlood flood-opacity="0" result="BackgroundImageFix"/>
<feColorMatrix in="SourceAlpha" type="matrix" values="0 0 0 0 0 0 0 0 0 0 0 0 0 0 0 0 0 0 127 0" result="hardAlpha"/>
<feOffset dy="6"/>
<feGaussianBlur stdDeviation="36.95"/>
<feComposite in2="hardAlpha" operator="out"/>
<feColorMatrix type="matrix" values="0 0 0 0 0 0 0 0 0 0 0 0 0 0 0 0 0 0 0.25 0"/>
<feBlend mode="normal" in2="BackgroundImageFix" result="effect1_dropShadow_70_32"/>
<feBlend mode="normal" in="SourceGraphic" in2="effect1_dropShadow_70_32" result="shape"/>
</filter>
<clipPath id="clip0_70_32">
<rect width="1920" height="1040" fill="white"/>
</clipPath>
<clipPath id="clip1_70_32">
<rect x="10" y="10" width="427" height="302" rx="6" fill="white"/>
</clipPath>
<clipPath id="clip2_70_32">
<rect x="437" y="10" width="452" height="302" rx="6" fill="white"/>
</clipPath>
<clipPath id="clip3_70_32">
<rect x="10" y="312" width="1346" height="249" rx="6" fill="white"/>
</clipPath>
<clipPath id="clip4_70_32">
<rect x="20" y="367.5" width="1326" height="50" rx="7" fill="white"/>
</clipPath>
<clipPath id="clip5_70_32">
<rect width="14" height="14" fill="white" transform="translate(78 385.5)"/>
</clipPath>
<clipPath id="clip6_70_32">
<rect x="20" y="427.5" width="1326" height="50" rx="7" fill="white"/>
</clipPath>
<clipPath id="clip7_70_32">
<rect width="14" height="14" fill="white" transform="translate(78 445.5)"/>
</clipPath>
<clipPath id="clip8_70_32">
<rect x="20" y="487.5" width="1326" height="50" rx="7" fill="white"/>
</clipPath>
<clipPath id="clip9_70_32">
<rect width="14" height="14" fill="white" transform="translate(78 505.5)"/>
</clipPath>
</defs>
</svg>
